<?xml version="1.0" encoding="UTF-8" standalone="no"?>
<svg
   width="100%"
   height="100%"
   viewBox="0 0 5355 2993"
   version="1.1"
   xml:space="preserve"
   style="fill-rule:evenodd;clip-rule:evenodd;stroke-linejoin:round;stroke-miterlimit:2;"
   id="svg31"
   sodipodi:docname="TopBar.svg"
   inkscape:version="1.4.3 (fcd0343856, 2026-01-01)"
   xmlns:inkscape="http://www.inkscape.org/namespaces/inkscape"
   xmlns:sodipodi="http://sodipodi.sourceforge.net/DTD/sodipodi-0.dtd"
   xmlns="http://www.w3.org/2000/svg"
   xmlns:svg="http://www.w3.org/2000/svg"
   xmlns:serif="http://www.serif.com/"><defs
   id="defs31" /><sodipodi:namedview
   id="namedview31"
   pagecolor="#ffffff"
   bordercolor="#000000"
   borderopacity="0.25"
   inkscape:showpageshadow="2"
   inkscape:pageopacity="0.0"
   inkscape:pagecheckerboard="0"
   inkscape:deskcolor="#d1d1d1"
   inkscape:zoom="0.1916016"
   inkscape:cx="3444.6476"
   inkscape:cy="1370.0303"
   inkscape:window-width="1850"
   inkscape:window-height="1016"
   inkscape:window-x="70"
   inkscape:window-y="27"
   inkscape:window-maximized="1"
   inkscape:current-layer="g4" />
    <g
   id="Layer1">
        <g
   transform="matrix(1.01367,0,0,0.871533,-73.1782,1758.49)"
   id="g1">
            <rect
   x="72.192"
   y="1326.94"
   width="5282.14"
   height="88.54"
   style="fill:rgb(176,28,46);"
   id="rect1" />
        </g>
        <g
   id="WPEdge"
   transform="matrix(0.113279,0,0,0.113279,4567.67,2.84217e-14)">
            <rect
   x="0"
   y="0"
   width="6944.44"
   height="2777.78"
   style="fill:white;"
   id="rect2" />
            <path
   id="EdgeRoundel"
   d="M676.433,1298.37C618.96,1786.16 934.578,2249.24 1420.98,2361.48L1421.06,2361.5L1324.95,2777.78L-40322.2,2777.78L-40322.2,-0L1966.25,0L1860.6,457.615L1860.3,457.546C1409.5,353.523 958.506,584.685 765.912,988.151C721.542,992.825 677.975,996.848 636.419,997.889C503.744,1001.22 399.77,988.585 310.557,970.252C306.031,969.322 301.434,971.484 299.264,975.563C297.094,979.642 297.87,984.663 301.17,987.896C326.827,1013.03 367.75,1029 418.838,1038.58C344.1,1041.47 264.436,1038.78 187.259,1032.75C183.054,1032.42 179.065,1034.66 177.158,1038.42C175.25,1042.18 175.799,1046.72 178.549,1049.92C189.093,1062.19 211.304,1073.06 248.622,1080.41C282.506,1087.09 329.622,1091.38 392.408,1092.78C309.46,1107.97 236.814,1119.53 168.557,1129.63C163.308,1130.4 159.481,1135 159.671,1140.3C159.861,1145.61 164.006,1149.92 169.298,1150.32C233.514,1155.16 298.827,1157.74 363.532,1151.44C322.132,1171.91 290.88,1194.05 269.153,1217.64C266.108,1220.94 265.526,1225.83 267.711,1229.76C269.896,1233.69 274.355,1235.77 278.77,1234.93C298.008,1231.25 316.672,1227.23 334.507,1222.71C324.559,1230.93 315.305,1239.55 306.681,1248.52C303.837,1251.48 302.997,1255.83 304.534,1259.64C306.071,1263.44 309.699,1265.99 313.801,1266.15C356.522,1267.75 395.99,1264.36 428.054,1250.24C460.713,1269.92 494.061,1268.59 527.619,1262.26C535.501,1272.74 544.465,1279.51 554.161,1283.32C568.66,1289.01 585.144,1288.1 603.022,1281.66C618.884,1303.46 644.668,1307.03 676.427,1298.37L676.433,1298.37Z"
   style="fill:rgb(176,28,46);" />
            <g
   id="Bodies">
                <g
   id="prop">
                    <path
   id="Bodies1"
   serif:id="Bodies"
   d="M1376.88,2207.78L1473.04,2282.5C1471.92,2288.88 1471.21,2294.88 1470.91,2300.33L1467.74,2333.87C1467.23,2349.03 1458.95,2357.94 1448.56,2356.2L1422.09,2348.97L1380.03,2217.26C1378.86,2214.09 1377.81,2210.93 1376.88,2207.78Z"
   style="fill:rgb(171,31,45);" />
                    <path
   id="Bodies2"
   serif:id="Bodies"
   d="M1809.98,551.268L1911.81,617.712C1916.92,638.366 1918.09,657.545 1914.82,676.642L1850.16,1072.07C1845.6,1102.14 1833.71,1129.76 1814.79,1155.01C1776.54,1214.25 1743.26,1271.77 1729.72,1321.41L1721.03,1351.45C1726.6,1357.08 1731.46,1363.62 1735.35,1370.98C1756.61,1411.21 1741.2,1461.13 1700.97,1482.39C1694.5,1485.8 1687.78,1488.28 1680.97,1489.85L1662.54,1553.54L1685.58,1693.88C1688.77,1724 1685.76,1752.32 1675.15,1778.46L1487.05,2236.14C1481.63,2248.73 1477.64,2261.3 1474.97,2272.97L1373.54,2194.15C1369.67,2174.36 1370.12,2154.89 1373.64,2135.64L1457.07,1755.94C1471.06,1698 1479.06,1682.82 1502.87,1655.28C1535.88,1617.1 1588.32,1537.75 1606.95,1492.82L1611.66,1474.43C1602.77,1467.5 1595.17,1458.62 1589.57,1448.01C1568.31,1407.78 1583.72,1357.86 1623.94,1336.61C1632.04,1332.33 1640.53,1329.53 1649.11,1328.13L1657.09,1296.92C1664.8,1238.44 1646.39,1170.34 1641.19,1130.86C1638.23,1108.38 1637.97,1081.07 1645.76,1057.32L1806.19,566.646C1808.32,560.345 1809.4,555.806 1809.98,551.268Z"
   style="fill:rgb(171,31,45);" />
                    <path
   id="Bodies3"
   serif:id="Bodies"
   d="M1810.65,541.298C1810.74,538.033 1810.79,534.32 1810.92,529.763C1811.36,513.964 1812.93,487.975 1813.57,476.586C1814.38,461.925 1822.32,460.774 1830.09,462.213C1837.65,463.613 1857.04,469.943 1857.04,469.943L1906.1,598.469C1906.85,600.656 1907.57,602.824 1908.24,604.972L1810.65,541.298Z"
   style="fill:rgb(171,31,45);" />
                </g>
                <g
   id="buddi">
                    <path
   id="Bodies4"
   serif:id="Bodies"
   d="M1552.32,2107.76L1591.79,2011.72L1623.91,1933.58L1948.11,1932.36L1948.26,1423.41L1930.63,1423.57L1931.49,1356.44L1993.3,1356.44L1993.31,1422.99L1975.85,1423.1L1976.78,1931.86L1997.63,1931.88C1996.43,1932.67 1995.31,1933.8 1994.29,1935.27C1991.98,1938.61 1990.05,1944.26 1988.66,1951.69C1984.62,1973.33 1986.75,2183.11 1986.75,2183.11L1948.38,2183L1947.94,2106.68L1552.32,2107.76Z"
   style="fill:rgb(171,31,45);" />
                    <path
   id="Bodies5"
   serif:id="Bodies"
   d="M1939.61,2173.17L1525.62,2172.73L1548.75,2116.45L1939.31,2115.36L1939.61,2173.17Z"
   style="fill:rgb(171,31,45);" />
                    <path
   id="Bodies6"
   serif:id="Bodies"
   d="M1996.36,2087.32C1994.67,2060.47 1993.23,2025.76 1993.82,1996.27C1994.22,1976.09 1995.55,1958.39 1998.49,1947.51C1999.33,1944.39 1999.88,1941.9 2000.92,1940.14C2002.4,1937.63 2005.13,1937.83 2006.62,1940.19C2007.75,1941.96 2008.59,1945.74 2009.1,1948.53C2010.86,1958.04 2012.93,1973.72 2013.19,1976.99C2017.67,2033.7 2012.03,2087.78 2005.53,2145.47C2001.52,2126.22 1998.3,2106.84 1996.36,2087.32Z"
   style="fill:rgb(171,31,45);" />
                    <path
   id="Bodies7"
   serif:id="Bodies"
   d="M1993.29,1348.8L1931.58,1348.56L1734.44,1349.01C1734.28,1348.82 1734.11,1348.62 1733.95,1348.43L1740.84,1324.63C1740.85,1324.57 1740.87,1324.52 1740.88,1324.46C1754.14,1275.84 1786.87,1219.6 1824.32,1161.59C1844.27,1134.86 1856.78,1105.62 1861.6,1073.81L1868.87,1029.36L1930.14,1029.83L1936.07,1029.89C1936.07,1029.89 2017.6,1035.11 2017.97,1035.03L2939.29,1092.28L2938.71,1274.23L2718.32,1291.61L2717.78,1217.64L2023.24,1221.46L2024.01,1345.93C2024.01,1346.08 2024.02,1346.23 2024.03,1346.38L1993.29,1348.8Z"
   style="fill:rgb(171,31,45);" />
                    <path
   id="Bodies8"
   serif:id="Bodies"
   d="M2709.64,1292.29L2032.68,1345.69L2031.95,1230.47L2709.16,1226.57L2709.64,1292.29Z"
   style="fill:rgb(171,31,45);" />
                    <path
   id="Bodies9"
   serif:id="Bodies"
   d="M1930.2,1021.15L1931.18,889.464L1993.43,889.581L1993.63,1024.92L1936.28,1021.22L1930.2,1021.15Z"
   style="fill:rgb(171,31,45);" />
                    <path
   id="Bodies10"
   serif:id="Bodies"
   d="M1914.31,880.749L1914.32,871.464L1923.03,871.482L1923.13,842.221L1913.91,842.129L1913.82,831.659L2008.64,832.151L2008.76,842.033L2001.17,842.021L2001,870.53L2009.44,870.516L2009.29,880.928L1914.31,880.749Z"
   style="fill:rgb(171,31,45);" />
                    <path
   id="Bodies11"
   serif:id="Bodies"
   d="M1953.25,823.183L1953.46,806.02C1937.39,809.642 1921.26,810.44 1904.7,810.258L1907.75,791.594C1923.16,790.663 1938.16,790.689 1953.06,793.683C1953.06,793.683 1954.29,778.162 1961.57,778.405C1968.85,778.648 1970.05,793.691 1970.05,793.691C2032.66,785.7 2051.1,793.989 2188.21,794.222C2197.06,794.237 2196.87,802.656 2187.77,802.779C2055.58,804.564 2003.92,818.282 1969.96,805.974L1970.1,823.27L1953.25,823.183Z"
   style="fill:rgb(171,31,45);" />
                </g>
                <path
   id="bird"
   d="M1484.11,1659.76C1492.92,1606.89 1510.65,1530.53 1535.01,1468.85L1533.47,1437.82C1533.23,1418.94 1525.29,1409.78 1508.04,1412.33C1481.47,1427.98 1455.67,1435.48 1432.69,1412.5C1417.05,1421.92 1403.92,1420.92 1393.01,1410.76C1383.12,1418.64 1370.95,1422.44 1354.66,1418.92C1344.14,1427.09 1332.16,1427.44 1318.44,1418.57C1301.99,1427.44 1289.38,1425.58 1279.71,1415.45C1259.08,1421.75 1239.99,1424.79 1223.36,1409.79C1210.22,1415.99 1193.02,1411.89 1185.68,1396.37C1173.69,1411.86 1144.4,1400.43 1145.97,1388.03C1122.31,1393.42 1105.93,1398.88 1092.89,1372.95C1072.3,1388.56 1053.34,1383.2 1045.8,1355.62C1028.01,1374.36 1008.17,1368.15 998.576,1346.73C971.979,1364.65 961.137,1356.34 947.34,1336.02C935.287,1349.26 914.147,1342.26 908.357,1330.74C892.048,1339.47 872.316,1340.35 864.487,1319.38C845.068,1333.38 831.402,1325.94 820.942,1306.54C797.578,1313.61 778.701,1309.04 763.907,1293.88C734.706,1300.69 710.105,1297.28 690.498,1282.79C652.858,1297.13 622.376,1297.7 607.258,1268.74C576.92,1282.21 550.872,1280.07 532.306,1250.71C497.428,1257.91 462.687,1261.12 428.837,1238.39C397.244,1253.93 357.437,1257.36 314.195,1255.74C340.403,1228.46 372.629,1204.6 412.654,1185.16C374.881,1202.75 327.9,1214.93 276.818,1224.69C311.939,1186.57 372.738,1152.62 461.597,1123.25C365.888,1149.46 266.725,1147.21 170.084,1139.93C266.713,1125.64 372.123,1108.41 503.02,1082.15C302.936,1086.48 210.479,1071.08 186.451,1043.13C304.414,1052.35 428.148,1053.78 531.585,1039.59C431.701,1035.73 349.645,1020.8 308.463,980.453C398.322,998.919 503.048,1011.65 636.683,1008.3C752.865,1005.39 884.788,979.121 1005.77,980.626C1111.93,981.947 1245.49,1064.6 1477.16,1056.92C1506.13,1055.96 1552.17,1038.45 1561.88,1010.4C1574.13,975.037 1583.37,888.827 1623.52,879.804L1633.26,830.927L1642.85,879.619C1658.74,886.177 1670.95,898.029 1679.93,915.568L1634.76,1053.72C1626.42,1079.12 1626.54,1108.33 1629.71,1132.37C1634.79,1170.99 1653.04,1237.48 1645.69,1294.76L1639.68,1318.27C1632.48,1320.07 1625.38,1322.76 1618.53,1326.38C1572.66,1350.62 1555.09,1407.54 1579.33,1453.42C1584.45,1463.11 1591.03,1471.53 1598.65,1478.56L1595.95,1489.12C1577.41,1533.31 1526.32,1610.47 1494.11,1647.71C1490.45,1651.95 1487.14,1655.9 1484.11,1659.76Z"
   style="fill:rgb(171,31,45);" />
            </g>
            <g
   transform="matrix(0.869533,0,0,0.869533,1700.03,303.831)"
   id="g4">
                <g
   transform="matrix(1,0,0,1,1720.87,999.094)"
   id="g2">
                    <path
   style="font-size:788.23px;font-family:'Rockwell Nova';-inkscape-font-specification:'Rockwell Nova';fill:#ab1f2d"
   d="m 428.754,-430.29351 q 0,40.79705 -18.08926,71.97217 -18.08926,31.17511 -52.72827,47.72486 48.87949,17.3195 74.66631,54.26779 26.1717,36.5634 26.1717,86.98241 0,82.748748 -60.81071,126.239953 Q 337.53794,0 216.68627,0 H 15.779995 V -72.357049 H 87.367288 V -507.65398 H 15.779995 v -72.35705 H 219.76529 q 105.84143,0 157.41507,36.94828 51.57364,36.94829 51.57364,112.76924 z m -86.59753,4.61853 q 0,-40.79706 -28.86584,-61.19559 -28.86585,-20.78341 -81.59412,-20.78341 H 174.3497 v 169.34629 h 58.11656 q 109.69021,0 109.69021,-87.36729 z m 27.71121,254.78918 q 0,-48.10974 -34.25413,-71.58729 -33.86926,-23.86243 -105.45655,-23.86243 h -55.8073 v 193.978471 h 34.63901 q 51.95852,0 85.4429,-6.158047 33.48438,-6.542924 54.26779,-27.711214 21.16828,-21.55316 21.16828,-64.65949 z m 293.27698,8.46732 v 91.600943 h 88.13705 V 0 H 503.03545 v -70.817537 h 81.20924 V -333.30428 h -81.20924 v -71.20241 h 144.32922 v 91.60094 q 24.24731,-54.26779 60.04095,-75.43607 36.17853,-21.55316 103.14729,-21.55316 h 18.08926 v 80.43948 h -17.31951 q -64.65949,0 -96.21948,16.93463 -31.55999,16.93463 -41.95169,51.18876 -10.00683,34.25414 -10.00683,98.91363 z m 346.77504,-378.335 q 0,19.62878 -14.24048,33.86926 -14.24048,14.24048 -33.86925,14.24048 -19.62878,0 -33.48438,-14.24048 -13.85561,-14.24048 -13.85561,-33.86926 0,-19.62877 13.85561,-33.86925 13.8556,-14.24049 33.48438,-14.24049 20.39853,0 34.25413,13.85561 13.8556,13.8556 13.8556,34.25413 z m 56.9619,469.935943 V 0 H 862.51146 v -70.817537 h 63.11998 V -333.30428 h -63.11998 v -71.20241 h 142.78974 v 333.689153 z m 292.5073,-316.369653 v -17.3195 h 69.278 v 134.32239 h -69.278 v -24.63219 q -34.639,-49.64925 -94.68,-49.64925 -31.56,0 -51.5736,13.85561 -20.0137,13.8556 -20.0137,35.79364 0,19.62878 15.0103,30.79024 15.3951,11.16146 68.5082,19.62877 l 53.4981,10.3917 q 119.697,21.93805 119.697,117.38777 0,55.807299 -43.4912,89.676556 -43.1063,33.8692566 -114.6936,33.8692566 -28.481,0 -56.1922,-8.0824364 -27.3263,-8.4673142 -45.8005,-20.7834072 V 0 h -70.8175 v -138.55605 h 70.8175 v 13.8556 q 5.7732,29.250726 32.3298,46.95511 26.9414,17.704384 62.3502,17.704384 38.8727,0 61.1956,-13.470727 22.3229,-13.855605 22.3229,-40.797057 0,-19.62878 -17.7044,-29.25072 -17.7044,-10.00683 -71.2024,-20.39853 l -41.1819,-8.8522 q -61.1956,-12.31609 -89.6766,-42.33657 -28.481,-30.02048 -28.481,-76.5907 0,-37.71804 20.7834,-64.27462 21.1683,-26.94145 53.883,-40.41218 32.7146,-13.47072 67.3536,-13.47072 58.1166,0 97.759,22.70779 z m 352.933,-17.3195 v 71.20241 h -73.8966 v 212.06774 q 0,33.099496 6.9278,43.106322 7.3127,9.621948 24.6322,9.621948 21.1683,0 42.3366,-7.31268 v 71.9721708 q -36.9483,10.7765818 -59.6561,10.7765818 -50.0342,0 -71.9722,-25.0170646 -21.938,-25.401943 -21.938,-86.597528 v -228.61749 h -52.7283 v -71.20241 h 52.7283 v -61.19559 l 79.6697,-72.74193 v 133.93752 z m 479.5579,202.83066 q 0,58.88632 -28.0961,107.765817 -28.0961,48.879496 -76.5907,77.360462 -48.4946,28.480967 -107.3809,28.480967 -60.8107,0 -109.6902,-28.480967 -48.8795,-28.480966 -76.2059,-77.360462 -26.9414,-48.879497 -26.9414,-107.765817 0,-61.58047 26.9414,-110.07509 27.3264,-48.49461 75.821,-75.82095 48.4946,-27.71121 110.0751,-27.71121 59.656,0 108.1507,29.25073 48.4946,28.86584 76.2058,77.74534 27.7112,48.87949 27.7112,106.61118 z m -212.0677,136.246784 q 35.4087,0 65.0443,-18.474141 29.6356,-18.474143 46.1854,-49.649253 16.5497,-31.17511 16.5497,-68.12339 0,-36.17852 -16.5497,-67.35364 -16.5498,-31.17511 -46.1854,-50.03413 -29.6356,-19.24389 -65.8141,-19.24389 -35.4088,0 -65.0444,18.85902 -29.6356,18.47414 -46.5702,50.03413 -16.9346,31.55999 -16.9346,67.73851 0,36.17852 16.9346,67.73851 16.9346,31.55999 46.9551,50.034133 30.0205,18.474141 65.4293,18.474141 z m 469.9358,-5.388291 V 0 h -212.8375 v -70.817537 h 71.5873 V -509.96324 h -71.5873 v -70.04779 h 151.257 v 509.193493 z"
   id="text2"
   aria-label="Bristol" />
                </g>
                <g
   transform="matrix(1,0,0,1,1720.87,1945.12)"
   id="g3">
                    <path
   style="font-size:788.23px;font-family:'Rockwell Nova';-inkscape-font-specification:'Rockwell Nova';fill:#ab1f2d"
   d="m 392.57548,-410.66474 v -96.98924 H 175.11945 v 172.04043 H 362.555 v 72.35705 H 175.11945 v 190.899451 h 73.89656 V 0 H 14.240483 V -72.357049 H 87.367288 V -507.65398 H 14.240483 v -72.35705 H 464.16277 v 169.34629 z M 709.33,-70.817537 V 0 H 496.49251 V -70.817537 H 568.0798 V -509.96324 h -71.58729 v -70.04779 H 647.74953 V -70.817537 Z M 901.38406,-540.75348 q 0,19.62878 -14.24048,33.86926 -14.24048,14.24048 -33.86926,14.24048 -19.62877,0 -33.48438,-14.24048 -13.8556,-14.24048 -13.8556,-33.86926 0,-19.62877 13.8556,-33.86925 13.85561,-14.24049 33.48438,-14.24049 20.39853,0 34.25414,13.85561 13.8556,13.8556 13.8556,34.25413 z M 958.346,-70.817537 V 0 H 753.97582 V -70.817537 H 817.0958 V -333.30428 h -63.11998 v -71.20241 h 142.78971 v 333.689153 z m 390.2662,-275.187713 v -58.50144 h 152.0268 v 71.20241 h -73.1268 v 303.283802 q 0,105.841428 -53.498,163.188238 -53.1132,57.73169 -155.4907,57.73169 -96.9892,0 -165.4975,-54.65267 l 51.1888,-57.346806 q 27.7112,20.398529 55.4224,30.405356 28.0961,10.3917 61.1956,10.3917 60.0409,0 93.9102,-37.333155 33.8692,-37.333158 33.8692,-98.913626 v -37.718036 q -26.1717,30.790234 -66.5838,48.4946182 -40.0274,17.7043848 -80.0547,17.7043848 -56.1921,0 -101.2228,-28.480967 -44.6459,-28.480966 -70.0478,-75.436072 -25.0171,-47.339987 -25.0171,-103.532157 0,-57.34681 26.1717,-106.61119 26.5566,-49.26437 72.3571,-78.51509 45.8004,-29.25072 101.6077,-29.25072 40.0273,0 74.6663,15.77999 35.0239,15.77999 68.1234,48.10974 z M 1216.984,-59.2712 q 37.718,0 68.1234,-18.859018 30.4053,-18.859018 47.34,-50.803882 16.9346,-31.94487 16.9346,-68.89315 0,-34.63901 -16.9346,-66.58388 -16.9347,-31.94487 -46.9551,-51.57364 -30.0205,-19.62878 -66.9688,-19.62878 -36.1785,0 -65.8141,18.85902 -29.6356,18.85902 -46.1854,50.80389 -16.5497,31.94486 -16.5497,68.89314 0,37.71804 15.78,69.27803 15.78,31.55999 44.6458,50.03413 29.2507,18.47414 66.5839,18.47414 z m 592.712,-356.01208 q 112.7692,0 112.7692,122.0063 v 222.459443 h 68.5083 V 0 h -148.178 v -264.79601 q 0,-43.4912 -12.701,-61.19559 -12.3161,-17.70438 -38.4878,-17.70438 -44.2609,0 -115.0785,51.95852 v 220.919923 h 70.0478 V 0 h -222.0745 v -70.817537 h 72.357 V -509.96324 h -72.357 v -70.04779 h 152.0267 v 222.84432 q 71.5873,-58.11657 133.1678,-58.11657 z m 427.9843,10.77659 v 71.20241 h -73.8966 v 212.06774 q 0,33.099496 6.9278,43.106322 7.3127,9.621948 24.6322,9.621948 21.1683,0 42.3366,-7.31268 v 71.9721708 q -36.9483,10.7765818 -59.6561,10.7765818 -50.0342,0 -71.9722,-25.0170646 -21.938,-25.401943 -21.938,-86.597528 v -228.61749 h -52.7283 v -71.20241 h 52.7283 v -61.19559 l 79.6697,-72.74193 v 133.93752 z m 413.3588,-103.14729 v 435.296931 h 190.5146 V -252.09504 h 71.9722 V 0 h -424.9053 v -72.357049 h 74.6664 V -507.65398 h -74.6664 v -72.35705 h 237.0848 v 72.35705 z m 662.7599,245.93699 v 190.899453 h 67.7385 V 0 h -137.7863 v -49.649252 q -57.7317,56.5770546 -128.5492,56.5770546 -37.3332,0 -68.5083,-17.3195066 -30.7902,-17.319506 -49.6493,-46.18535 -18.4741,-29.250722 -18.4741,-64.659486 0,-38.10292 20.3985,-67.73852 20.7834,-30.02048 55.8073,-46.18535 35.0239,-16.16487 70.4327,-16.16487 59.2712,0 110.4599,34.63901 v -43.4912 q 0,-47.33999 -20.0136,-67.73852 -20.0137,-20.39853 -65.8141,-20.39853 -32.3298,0 -54.2678,11.93122 -21.5532,11.54634 -35.7937,35.40877 l -76.2058,-18.85902 q 25.7868,-48.10974 69.6629,-71.58729 43.8761,-23.86244 104.3019,-23.86244 81.2093,0 118.5424,36.94828 37.7181,36.94828 37.7181,116.61801 z m -187.8205,207.449203 q 58.5015,0 109.6902,-48.879493 v -47.33999 q -51.9585,-40.41218 -103.917,-40.41218 -31.56,0 -54.6527,20.01365 -22.7078,19.62878 -22.7078,49.64926 0,28.865839 20.0137,48.109735 20.0136,18.859018 51.5736,18.859018 z m 581.9353,-361.015493 q 55.8073,0 100.8381,28.48097 45.0307,28.09609 70.0477,76.20583 25.402,48.10974 25.402,103.91704 0,57.73168 -25.7868,106.61118 -25.402,48.879497 -70.4327,78.130219 -45.0307,28.8658436 -100.838,28.8658436 -44.261,0 -84.2883,-18.0892626 -39.6424,-18.089262 -62.3502,-49.649251 V 0 h -148.9478 v -70.817537 h 71.5873 V -509.96324 h -71.5873 v -70.04779 h 148.9478 v 233.23602 q 60.8107,-68.50827 147.4082,-68.50827 z m -16.5497,351.393545 q 37.718,0 67.3536,-20.39853 29.6356,-20.398525 45.8005,-53.498035 16.1649,-33.0995 16.1649,-70.43265 0,-36.94829 -16.5498,-67.73852 -16.5497,-30.79023 -45.8004,-48.87949 -29.2508,-18.08927 -66.199,-18.08927 -36.9483,0 -66.1991,18.85902 -29.2507,18.85902 -45.8004,51.18876 -16.5498,32.32975 -16.5498,71.97218 0,37.71803 16.9347,69.27802 16.9346,31.55999 46.1853,49.649253 29.2507,18.089262 64.6595,18.089262 z"
   id="text3"
   aria-label="Flight Lab" />
                </g>
            </g>
        </g>
    </g>
    <g
   transform="matrix(0.744638,0,0,0.744638,1425.56,775.284)"
   id="g31">
        <g
   transform="matrix(1,0,0,1,-1814.63,-936.947)"
   id="g5">
            <path
   d="M264.7,133.5C267.9,133.4 273,133.1 275.8,133.1C291.3,133.1 296.6,141.2 296.6,150C296.6,159.9 290.5,164.6 278.4,164.6L264.6,164.6L264.7,133.5ZM254.2,197.7C254.2,205.7 252.2,208.1 241.8,208.1L238.9,208.1L238.9,210.5L285.1,210.5C305.4,210.5 312.4,196.5 312.4,186.5C312.4,176.5 305.5,168.9 293.6,165.4L293.6,165.2C302.1,163.7 308,157 308,149.8C308,143.7 305.5,139.4 300.3,135.8C295.8,132.5 286,130.9 274.9,130.9C272.5,130.9 262.9,131 256,131.3C252.3,131.4 243.6,131.9 240.1,132.1L240.1,134.5L244.5,134.5C253.3,134.5 254.2,138.3 254.2,145.5L254.2,197.7ZM264.7,167.1L278.3,167.1C293.1,167.1 300.5,177.1 300.5,186.8C300.5,196.5 295.7,207 279,207C268.4,207 264.6,203.6 264.6,194L264.7,167.1Z"
   style="fill:white;fill-rule:nonzero;"
   id="path4" />
        </g>
        <g
   transform="matrix(1,0,0,1,-1814.63,-936.947)"
   id="g6">
            <path
   d="M440.3,134.3L440.3,131.9L409.6,131.9L409.6,134.3C416.7,134.7 419.1,136.6 419.1,143.4L419.1,197.2C419.1,205.4 417.5,207.5 410.3,208C400.7,207.5 396.6,203.7 389.7,196.8L379.7,186.8C373.8,180.9 370,177.3 365.3,173.7C375.7,170.7 382.1,162.7 382.1,153.2C382.1,140.3 371.6,130.7 348.3,130.7C340.1,130.7 337.6,130.8 332.4,131.1C327.2,131.3 319.5,131.9 316.5,131.9L316.5,134.3L319.3,134.3C326.6,134.3 328.8,136.6 328.8,144.4L328.8,197.6C328.8,206.1 326.2,208.1 318.7,208.1L316.6,208.1L316.6,210.5L352.3,210.5L352.3,208L349.4,208C342.3,208 339.3,206.1 339.3,198.5L339.3,177.2C341.3,177.3 343,177.5 345.7,177.5C349.1,177.5 351.1,177.4 354.3,177.2C357.3,179.2 361.8,182.9 367.3,188.4L375.6,196.7C386.5,207.6 391.2,211.1 411.7,210.3L440.3,210.3L440.3,208C431.6,208 429.6,205.5 429.6,198L429.6,144.5C429.6,136 432.4,134.3 440.3,134.3ZM347,175.1C344.1,175.1 342.2,175.2 339.2,174.9L339.2,133.5C341.5,133.3 343.1,133.3 345.5,133.3C365,133.3 370.3,142.4 370.3,154.1C370.3,169.1 361.1,175.1 347,175.1Z"
   style="fill:white;fill-rule:nonzero;"
   id="path5" />
        </g>
        <g
   transform="matrix(1,0,0,1,-1814.63,-936.947)"
   id="g7">
            <path
   d="M448.9,191.2C451.6,202.4 460.4,209 470.2,209C478.7,209 487.6,204.1 487.6,194.1C487.6,175.9 447.1,170.4 447.1,148.3C447.1,137.8 456.7,130 469.6,130C480.2,130 482.4,133.2 486.8,133.2C487.8,133.2 488.3,133 489.1,131.9L491.1,131.9L493.2,147.9L491.1,147.9C487.6,138.8 479.5,133 470.8,133C462.1,133 456.7,137.8 456.7,144.9C456.7,162.8 497.2,167.6 497.2,190.9C497.2,203.3 486.2,212.5 471.4,212.5C464.4,212.5 455.6,209.1 453.9,209.1C452.8,209.1 451.9,209.7 451.4,210.5L449.3,210.5L446.7,191.3L448.9,191.2Z"
   style="fill:white;fill-rule:nonzero;"
   id="path6" />
        </g>
        <g
   transform="matrix(1,0,0,1,-1814.63,-936.947)"
   id="g8">
            <path
   d="M545.8,198.8C545.8,205.6 548.1,208 555.8,208L560.5,208L560.5,210.4L520.7,210.4L520.7,208L525.4,208C533.1,208 535.4,205.6 535.4,198.8L535.4,136.4L513.4,136.4C508.4,136.4 506.1,139.3 504.2,150.4L501.9,150.4L503.9,129.9L506.3,129.9C506.4,130.7 506.9,131.2 507.7,131.4C508.5,131.7 509.3,131.8 510.2,131.8L570.9,131.8C572.7,131.8 574.6,131.4 574.8,129.9L577.2,129.9L579.2,150.4L577,150.4C575.1,139.3 572.8,136.4 567.8,136.4L545.8,136.4L545.8,198.8Z"
   style="fill:white;fill-rule:nonzero;"
   id="path7" />
        </g>
        <g
   transform="matrix(1,0,0,1,-1814.63,-936.947)"
   id="g9">
            <path
   d="M659.8,173.2C659.8,191.1 650,209.3 629.4,209.3C608.8,209.3 593,192.6 593,169C593,153.8 601.8,133.1 624.1,133.1C644.9,133.1 659.8,149.7 659.8,173.2ZM671.7,169C671.7,146.3 651.2,130 627.4,130C600.5,130 581.2,147.8 581.2,172.9C581.2,196.5 602,212.4 626.8,212.4C651.6,212.4 671.7,194.5 671.7,169Z"
   style="fill:white;fill-rule:nonzero;"
   id="path8" />
        </g>
        <g
   transform="matrix(1,0,0,1,-1814.63,-936.947)"
   id="g10">
            <path
   d="M730.4,210.4L674,210.4L674,208L678.2,208C684,208 686.2,206.1 686.2,199.7L686.2,143.8C686.2,137.1 684.2,134.3 676.2,134.3L674.4,134.3L674.4,131.9L711.6,131.9L711.6,134.3L706.9,134.3C698.7,134.3 696.6,135.2 696.6,143L696.6,201.2C696.6,204.6 698,205.9 701.6,205.9L720.2,205.9C727.7,205.9 729.9,203 737.9,192L740.2,192L730.4,210.4Z"
   style="fill:white;fill-rule:nonzero;"
   id="path9" />
        </g>
        <g
   transform="matrix(1,0,0,1,-1814.63,-936.947)"
   id="g11">
            <path
   d="M140.5,95.8C140.4,88.5 137.9,73.4 120.3,64.9C138.2,70.6 146.7,85.7 147.6,96.9C166.4,100.6 183,109.5 210,100.1L210.1,100C210.1,100 174.6,100.3 159.7,89.6C167.4,89.9 176.2,88.2 179.1,83.8C182.2,79.2 182.5,74.4 190.1,74.1C194.4,74 208.9,75 210.4,53.8C205.8,61.6 200.7,64.9 193.2,62.9C188.4,61.7 179.5,58 173.2,65.5C168,71.7 162.4,75 153.4,74C157,69.2 210.2,0 210.2,0C210.2,0 142,54.8 138.2,57.9C137.5,47.9 140.5,44.2 144.5,39.8C147.8,36.2 153.5,31.3 148.9,21.1C145.3,13 145.8,8 155.8,0C147.8,0.6 135.7,5.9 137.1,20.6C138,29.4 131.7,30.2 129.4,31.5C123.5,34.8 122.7,44.3 122.5,51.8C121.8,49.4 113.2,12.2 110.1,0.2L110.1,100.2L110.3,100.2C122,95.5 131.6,94.8 140.5,95.8Z"
   style="fill:white;fill-rule:nonzero;"
   id="path10" />
        </g>
        <g
   transform="matrix(1,0,0,1,-1814.63,-936.947)"
   id="g12">
            <path
   d="M210,110.4C164.9,125.2 149.6,93.9 110.2,110.4L110.2,210.5C153.1,194.6 154.7,224 210,210.5L210,110.4ZM128.3,161.6C128.1,161.7 128,161.9 127.9,162.1C127.5,163 126.2,167.5 125.9,168.7C125.6,169.9 125.2,170.1 124.5,170.4C123.9,170.6 123.8,172 124.4,172.1C126,172.6 125.7,173.7 125.6,173.9C125.6,174.2 125,177.1 123,179.1C121.9,177 121.7,175 121.5,174.5C121.3,174 121.2,173.4 121.3,172.9C121.4,172.4 121.2,170.3 121.1,169.8C121,169.3 121.3,168.8 121.5,168.4C121.9,167.6 124.7,162.4 126,159.1C126.5,157.9 129.3,156.7 129.9,157C130.7,157.3 131.6,158.4 135.6,160.1C135.7,161.2 135.9,163.4 136.5,164.3C135.6,164.7 134.1,164.8 134.1,164.8C134.1,164.8 130.7,162.1 130.1,161.4C130,161.3 129.7,161.1 129.5,161.1C129.1,161.3 128.6,161.5 128.3,161.6ZM166.2,194.1C165.5,193.5 164.4,194.5 165,195.4C165.7,196.5 165.6,197.1 165.6,197.1C165.6,197.1 163.4,199.7 160.4,200.1C160.1,199.8 161.2,195.8 162.3,193.6C163.2,191.8 163.6,191.5 164.8,190.9C166,190.3 171,187.8 172.6,186.5C174.2,185.2 174.8,183.3 174.8,183.3C174.8,183.3 176.3,185.2 178.2,187.1C177.8,187.8 168.3,193.8 167.8,194.2C167.5,194.6 166.8,194.6 166.2,194.1ZM188,189.1C187.6,189.7 183.4,197 182.3,199.5C181.7,200.9 181.1,200.6 180.7,200.7C180.3,200.8 179.2,201 179.3,202.3C179.4,203.2 179.2,203.6 179.2,203.6L171.9,203.6C172.2,202.5 172.9,201.2 175.8,199.7C176.7,199.2 177.8,198.2 178.6,197C179,196.4 181.5,191.9 182,190.8C182.4,190 182.2,188.7 181.8,187.9C181.4,187.2 180.7,185.9 179.7,185.1C176.5,182.5 174.5,180.5 171.8,175.2C171.4,174.3 171.9,173.3 167.2,174.6C156,177.6 147.8,173.5 147.4,173.2C147.8,171.1 148.6,169.2 147.4,168.3C146.7,169.7 146,170.7 144.8,172C144.4,172.4 143.9,172.3 143.1,172.2C142.2,172.1 136.6,171.4 135.6,171.1C135.2,171 133.6,171.5 134.5,173.3C134.7,173.6 135.9,175.9 137.3,177.9C138,179 137.3,179.7 137.4,180.5C137.6,181.3 138,181.6 138.3,181.5C138.6,181.4 139.8,180 140.7,181C141.6,182 142.3,184.9 142.4,187.8C141.6,187.9 140.5,187.5 139.5,186.7C138.6,186 137.7,184.6 136.7,183.8C135.7,183 135.2,183.1 134.5,182.4C133.9,181.8 133.2,181.4 133,179.6C132.8,177.8 130.1,171.9 129.7,171.2C129.1,170.3 130.2,168.4 130.7,167.8C131.1,167.3 132,167.2 133.1,167C134.7,166.6 137.3,165.5 138.2,165.2C134.7,158.6 138.9,154.5 139.4,154.2C140.6,148.4 142.8,145.3 143.7,144.1C145.8,143.7 147.8,143.4 148.8,139.2C149.4,136.8 148.3,134.3 147.5,133.6C147.9,135.8 147.8,138.2 146.6,139.9C144.9,142.4 142.1,142.1 141.5,142.1C140.9,142.1 140.4,142 139.9,142.5C139.5,142.9 138.2,144.1 137.4,144.6C136.7,145 136.8,145.3 136.8,145.9C136.7,146.5 136.7,146.9 136,147C135.3,147.1 134.3,146.6 133.7,146.6C132.7,146.6 133.3,146 133.9,145.2C134.5,144.4 134.6,144.9 135.1,144.8C135.7,144.7 136.2,144.4 136.7,143.7C137.5,142.5 135.6,142.3 135,142.9C134.4,143.5 133.6,144.6 133.1,145.2C132.6,145.8 132.1,146 131.9,145.3C131.7,144.8 131.5,143.8 131.5,143.3C129.9,142.9 131.3,141.1 131.3,141.1L136,135.4C136,135.4 134.9,134.7 135.7,133.5C136.1,132.9 138.9,129.5 140.9,128.1C140.5,127 140,125.9 138.8,124.7C140.6,125 142,124.9 144.8,127.9C145.5,128.6 146.3,128.4 146,127.7C145.7,126.9 145.2,126.3 144.3,125.1C153,122.8 157.2,130.5 157.8,131.3C156.2,131.2 154.9,131.4 154.1,131.7C153.4,131.9 153.5,132.2 154.5,132.3C157.4,132.6 157.8,132.8 158.7,133C159.9,134.4 160.6,137.8 160.5,137.9C159.3,138 157.7,137.7 156.1,138C154.8,138.2 155.2,138.8 155.8,138.8C157.7,139 159.6,139.6 161,140.2C161.5,142.9 161.4,144.7 161.4,144.7C161.4,144.7 158,144.3 157.1,144.4C156.2,144.5 156.7,145.2 157.5,145.5C158.3,145.8 160,146.4 161.1,147.4C161.1,148.2 160.8,150.1 160.4,151.1C160.1,152 160.3,152.9 161.9,153.2C166.1,154 169.7,154.6 176.2,154.5C187.6,154.3 191.4,167.4 186.3,173.8C183.9,176.8 183.8,178.5 184,179.6C184.5,182.3 185.9,184.7 188.4,186.1C189.7,186.6 188.4,188.4 188,189.1ZM200.7,140.7C197.3,143.6 200.9,149.1 197.7,153.4C196,156.3 191.1,159.3 186.4,156.4C189.2,155.4 192,153.1 190.4,148.6C188.4,142.9 185.7,142.8 182.6,138C180.2,134.3 178.9,124.7 187.8,121.6C180.5,126.2 184.8,134.5 187.5,136.9C182.8,126.1 190.1,121 194.5,121C196.9,121 199.9,121.2 201.6,124.4C204.1,128.9 200.4,132.3 198.5,132.4C201.6,131 201.4,128.1 200.4,126.6C198.5,123.9 193.3,125.2 192.4,128.4C191,133.3 194.9,136.1 196.2,139.3C198.1,136.5 203,136.2 205.1,139.2C203.1,139.4 201.6,140 200.7,140.7Z"
   style="fill:white;fill-rule:nonzero;"
   id="path11" />
        </g>
        <g
   transform="matrix(1,0,0,1,-1814.63,-936.947)"
   id="g13">
            <path
   d="M125.4,174C125.4,174 125.5,174 125.4,174C125.5,173.9 125.5,173.9 125.4,174Z"
   style="fill:white;fill-rule:nonzero;"
   id="path12" />
        </g>
        <g
   transform="matrix(1,0,0,1,-1814.63,-936.947)"
   id="g14">
            <path
   d="M310.2,41.8L310.2,43.6C303.9,43.7 301.7,46.2 301.7,52.2L301.7,77.5C301.7,89.1 294.3,101.6 274,101.6C256.1,101.6 246.9,91.4 246.9,78L246.9,50.6C246.9,44.6 245.2,43.7 238.8,43.6L238.8,41.8L262.9,41.8L262.9,43.6L262.1,43.6C257,43.6 254.7,45 254.7,50.4L254.7,76.4C254.7,89 262.1,96.6 276.1,96.6C286.7,96.6 297.5,92.2 297.5,76.3L297.5,54.6C297.5,45.6 296.1,44 288.3,43.6L288.3,41.8L310.2,41.8Z"
   style="fill:white;fill-rule:nonzero;"
   id="path13" />
        </g>
        <g
   transform="matrix(1,0,0,1,-1814.63,-936.947)"
   id="g15">
            <path
   d="M322.5,91.9C322.5,97.1 323.7,98.3 328.8,98.3L328.8,100.1L310,100.1L310,98.3C314.1,98.3 316.3,96.1 316.3,92.4L316.3,72.7C316.3,69.2 315.9,68.6 313.5,68.1L310.3,67.4L310.3,66L321.1,62.1L322.6,62.1L322.6,69.4C328.9,65.5 334.1,62 338.7,62C345.1,62 348.7,66.7 348.7,76.1C348.7,88.5 348.1,91 347.9,94.6C347.8,97.1 349.3,98.4 353.1,98.4L355.2,98.4L355.2,100.2L335,100.2L335,98.4C337.7,98.3 339.3,97.6 340.3,96.6C342.1,94.8 342.3,88 342.3,75.5C342.3,68 338.7,65.7 334.9,65.7C331.9,65.7 327.3,68.3 322.4,71.7L322.5,91.9Z"
   style="fill:white;fill-rule:nonzero;"
   id="path14" />
        </g>
        <g
   transform="matrix(1,0,0,1,-1814.63,-936.947)"
   id="g16">
            <path
   d="M373.1,92.9C373.1,96.2 374.9,98.2 379.8,98.2L379.8,100L359,100L359,98.2C364.7,98.2 366.8,96.3 366.8,91.4L366.8,72.6C366.8,68.9 366.3,68.5 363.9,68L359.5,67.2L359.5,65.7L371.7,61.5L373.1,61.5L373.1,92.9ZM369.2,40.4C371.4,40.4 373.3,42 373.3,44C373.3,46 371.4,47.6 369.2,47.6C367,47.6 365.2,46 365.2,44C365.2,42 367,40.4 369.2,40.4Z"
   style="fill:white;fill-rule:nonzero;"
   id="path15" />
        </g>
        <g
   transform="matrix(1,0,0,1,-1814.63,-936.947)"
   id="g17">
            <path
   d="M401.2,100.9L387.6,69.8C386.2,66.5 385,65.4 383.5,65.1L380.6,64.6L380.6,63L399.7,63L399.7,64.7C394,64.9 392.2,65.6 394.5,70L404.4,93.3L413.9,71.7C415.6,67.9 414.7,65.1 407.9,64.7L407.9,63L424.2,63L424.2,64.7C420.7,65.4 418.6,67.4 416.8,71.5L403.9,100.9L401.2,100.9Z"
   style="fill:white;fill-rule:nonzero;"
   id="path16" />
        </g>
        <g
   transform="matrix(1,0,0,1,-1814.63,-936.947)"
   id="g18">
            <path
   d="M432.1,73.8C434.3,65.1 438.9,63.7 442,63.7C446.5,63.7 450.2,67.7 451.3,73.8L432.1,73.8ZM459.2,76.3L459.2,74.1C456.1,71 456.4,62 443.7,62C432.3,62 425.6,72.1 425.6,82C425.6,92.9 432.7,101.2 441.9,101.2C448.7,101.2 454.6,96.5 458.6,91.6L457.6,90.5C454,94.7 450.4,96.6 445.7,96.6C438.3,96.6 431.5,90 431.5,80.3C431.5,79.1 431.7,77.8 431.9,76.4L459.2,76.3Z"
   style="fill:white;fill-rule:nonzero;"
   id="path17" />
        </g>
        <g
   transform="matrix(1,0,0,1,-1814.63,-936.947)"
   id="g19">
            <path
   d="M477.2,93.2C477.2,97 478.6,98.3 483.3,98.3L486.9,98.3L486.9,100.1L464.7,100.1L464.7,98.3C469.5,98.2 471,96.2 471,91.3L471,69.6L464.7,67.4L464.7,65.8L475.4,62L477.3,62L477.3,72L477.5,72C482.2,64.3 483.3,62.5 486.4,62.5C487.5,62.5 487.8,62.6 489.6,63.3C490.5,63.7 492.2,64.1 494.5,64.7L492.3,70.3C490.9,70.1 489.1,69.6 487.3,68.8C486.3,68.3 485.2,67.9 484,67.9C482.3,67.9 481.3,69 480.4,70.3C479.2,72 478.2,73.6 477.4,75L477.4,93.2L477.2,93.2Z"
   style="fill:white;fill-rule:nonzero;"
   id="path18" />
        </g>
        <g
   transform="matrix(1,0,0,1,-1814.63,-936.947)"
   id="g20">
            <path
   d="M500.8,90.6C501.9,96.2 505.5,99.4 509.7,99.4C513.4,99.4 516.3,96.6 516.3,93.2C516.3,91.2 515.8,90 513.3,87.5C506.7,80.8 499.3,80.2 499.3,72.4C499.3,66.2 504.2,61.9 511.3,61.9C513.8,61.9 516.4,62.5 518.8,63.4L519,72L517.4,72C516.7,67.2 513.6,64.2 509.9,64.2C506.8,64.2 504.2,66.4 504.2,69.4C504.2,77.6 521.6,79 521.6,90.5C521.6,96.6 516.6,101.2 510,101.2C508.2,101.2 506.9,100.9 505.9,100.5C504.9,100.2 504.1,99.9 503.4,99.9C502.8,99.9 502.3,100.3 501.8,101L500.4,101L499.4,90.5L500.8,90.6Z"
   style="fill:white;fill-rule:nonzero;"
   id="path19" />
        </g>
        <g
   transform="matrix(1,0,0,1,-1814.63,-936.947)"
   id="g21">
            <path
   d="M541.4,92.9C541.4,96.2 543.2,98.2 548.1,98.2L548.1,100L527.3,100L527.3,98.2C533,98.2 535.1,96.3 535.1,91.4L535.1,72.6C535.1,68.9 534.6,68.5 532.2,68L527.8,67.2L527.8,65.7L540,61.5L541.4,61.5L541.4,92.9ZM537.5,40.4C539.7,40.4 541.6,42 541.6,44C541.6,46 539.7,47.6 537.5,47.6C535.3,47.6 533.5,46 533.5,44C533.5,42 535.3,40.4 537.5,40.4Z"
   style="fill:white;fill-rule:nonzero;"
   id="path20" />
        </g>
        <g
   transform="matrix(1,0,0,1,-1814.63,-936.947)"
   id="g22">
            <path
   d="M574.8,63L573.3,67.1L561.4,67.1L561.4,88.9C561.4,94.8 565.6,96.8 567.6,96.8C569.6,96.8 571.5,95.2 573.3,92.1L574.8,93.5C572.6,98.4 568.9,101.2 564.6,101.2C559.1,101.2 555.1,96.6 555.1,90.3L555.1,67.1L550.8,67.1L550.8,65.6C554.5,63.8 557.6,59.5 559.8,53.7L561.4,53.7L561.4,63L574.8,63Z"
   style="fill:white;fill-rule:nonzero;"
   id="path21" />
        </g>
        <g
   transform="matrix(1,0,0,1,-1814.63,-936.947)"
   id="g23">
            <path
   d="M611.8,73.4C614.6,66.3 612.8,64.9 607.3,64.7L607.3,63L622.8,63L622.8,64.7C619,65.2 616.8,67.8 615,72.2L599.1,111.9C596.3,118.8 594.1,121.9 590.9,121.9C588.7,121.9 587.1,120.5 587.1,118.6C587.1,114.8 592.5,115.7 594.9,113.4C595.9,112.4 597.3,109.9 598.1,108.1L600.9,101.1L586.4,70.3C584.6,66.5 582.9,64.9 579,64.8L579,63L597.8,63L597.8,64.7C592.1,64.8 591.4,66.5 593.3,70.4L603.9,93.2L611.8,73.4Z"
   style="fill:white;fill-rule:nonzero;"
   id="path22" />
        </g>
        <g
   transform="matrix(1,0,0,1,-1814.63,-936.947)"
   id="g24">
            <path
   d="M650.9,78.6C650.9,70.5 656.6,64.2 662.8,64.2C670.7,64.2 677.2,73.3 677.2,84C677.2,93.4 670.9,99 665.4,99C657.4,98.9 650.9,89.9 650.9,78.6ZM643.9,81.8C643.9,92.8 652.8,101.2 664.4,101.2C676,101.2 684.2,92.7 684.2,81.6C684.2,70.5 675.5,61.9 664.1,61.9C654.4,61.9 643.9,68.9 643.9,81.8Z"
   style="fill:white;fill-rule:nonzero;"
   id="path23" />
        </g>
        <g
   transform="matrix(1,0,0,1,-1814.63,-936.947)"
   id="g25">
            <path
   d="M711.4,67.1L701.3,67.1L701.3,92.8C701.3,97.1 703,98.3 708.2,98.3L711.8,98.3L711.8,100.1L688.7,100.1L688.7,98.3C694.1,98.3 695.1,97.1 695.1,91.8L695.1,67.1L688.2,67.1L688.2,65.5C690.8,64.9 693.1,64.1 695.1,63C695.1,55.2 696.8,49.3 702.3,43.8C706.9,39.2 711.3,37.1 715.6,37.1C720.8,37.1 725.3,40.1 725.3,41.5C725.3,42.3 723.5,46 722.8,46C721.5,46 718,41.4 711.8,41.4C705.1,41.4 701.4,46.7 701.4,55.8L701.4,63L710.9,63L711.4,67.1Z"
   style="fill:white;fill-rule:nonzero;"
   id="path24" />
        </g>
        <g
   transform="matrix(1,0,0,1,-1814.63,-936.947)"
   id="g26">
            <path
   d="M79.3,0.1L79.3,10.9L66.7,10.9L66.7,0.1L55.1,0.1L55.1,10.9L43.5,10.9L43.5,0.1L32.1,0.1L32.1,10.9L20.4,10.9L20.4,0.1L0,0.1C0,0.1 0,100.5 0,100.1C42.8,115 59.6,84.3 99.8,100.1L99.8,0.1L79.3,0.1ZM77.2,33.7C73.1,41.8 72.8,50 73.5,54.2C64.9,52 62,54.2 62,54.2C62,54.2 62.2,45 77.2,33.7ZM35.3,23.7C38.7,22.3 38.6,23.1 38.4,24C38.2,24.9 37.6,26.6 39.5,26.2C44.7,25 49.3,21.8 49.7,21.5L49.7,27.8C48.9,28.2 43.5,30.6 38.8,30.9C34.5,31.2 36.4,26.3 36.4,26.3C36,26.5 30.5,29.4 25.9,29.2C20.4,28.9 20.1,25.8 20.7,25.1C20.6,25.6 21.4,29.5 35.3,23.7ZM17.7,88.8C36.1,93.9 48.8,80.5 61.4,78.8C47.7,78.6 40.3,84.3 35.8,84.8C33.5,83.1 30.9,78.9 30,74.4C29.3,70.6 25.5,70 25.5,70L24.9,67C24.9,67 35.7,68.6 37.6,68.8C40.1,72.8 44.8,73.8 47.2,73.8C47.2,73.8 47.3,67 47.2,66.6C47.7,65.8 49.7,65.2 49.7,65.2L49.8,73.7C55.7,73.7 60.2,69.9 60.1,66.4C60,62.3 55.5,58.8 48.3,59C41.1,59.1 38.5,62.7 37.8,63.9C29.3,55.4 33.2,45 33.2,45C33.2,45 25.8,50 32.5,62.6C25.5,60.7 19.7,64.4 19.9,67.3C19.9,70 22,72.1 26.2,72.2C11.1,75.2 7.8,66.6 15,62C17.3,62.4 19.2,62.7 20.7,63.1C13.4,55.8 16.9,46.8 22.8,42.9C31.3,41.4 35.6,40.7 35.6,40.7C35.6,40.7 39.7,34.8 43.3,32.6C48.5,32.1 66.7,29.5 66.7,29.5C66.7,29.5 49.7,45 66,61.5L80.7,61.5C80.7,61.5 80.4,64 79.9,66.4C78.5,66.5 77.7,66.6 77.1,66.6C76.8,74.1 72.2,79 72.2,79C72.2,79 80.7,80.1 86.4,83.5C49.9,76.6 46.9,98.7 17.7,88.8Z"
   style="fill:white;fill-rule:nonzero;"
   id="path25" />
        </g>
        <g
   transform="matrix(1,0,0,1,-1814.63,-936.947)"
   id="g27">
            <path
   d="M138.2,136.1C138.2,136.1 137.7,135.9 138.6,135.1C138.7,135 138.9,135.2 139.4,135.2C140.1,135.2 140.5,135 141.1,134.3C142,133.2 140.1,132.8 139.5,133.3C138.8,133.9 138.4,134.4 137.8,135C137.8,135 136.9,135.8 138.2,136.1Z"
   style="fill:white;fill-rule:nonzero;"
   id="path26" />
        </g>
        <g
   transform="matrix(1,0,0,1,-1814.63,-936.947)"
   id="g28">
            <path
   d="M99.8,207.1C68,186.2 43.5,217.7 0,195.9L0,210.5C55.3,224 56.9,194.6 99.8,210.5L99.8,207.1Z"
   style="fill:white;fill-rule:nonzero;"
   id="path27" />
        </g>
        <g
   transform="matrix(1,0,0,1,-1814.63,-936.947)"
   id="g29">
            <path
   d="M44.7,187.7C17.1,187.9 0,171.2 0,171.2L0,184.3C39.7,211.4 65.6,180.7 99.8,203.8L99.8,200.3C91.6,193.8 81,187.4 44.7,187.7Z"
   style="fill:white;fill-rule:nonzero;"
   id="path28" />
        </g>
        <g
   transform="matrix(1,0,0,1,-1814.63,-936.947)"
   id="g30">
            <path
   d="M70.2,183.8C73.9,184.6 77.1,185.4 79.9,186.2C87.1,188.6 93.8,192.2 99.8,196.7L99.8,110.4C89.3,106 80.5,105 72.4,105.6L72.4,152L61.6,141.2L50.8,152L50.8,110C36.8,113.8 21.9,117.5 0,110.3L0,153.6C0,153.6 11.4,177.8 42.2,180.1C53.9,181.1 63,182.4 70.2,183.8"
   style="fill:white;fill-rule:nonzero;"
   id="path29" />
        </g>
    </g>
</svg>
